<?xml version="1.0" standalone="no"?>
<!DOCTYPE svg PUBLIC "-//W3C//DTD SVG 20010904//EN"
 "http://www.w3.org/TR/2001/REC-SVG-20010904/DTD/svg10.dtd">
<svg version="1.0" xmlns="http://www.w3.org/2000/svg"
 width="768.000000pt" height="768.000000pt" viewBox="0 0 768.000000 768.000000"
 preserveAspectRatio="xMidYMid meet">

<g transform="translate(0.000000,768.000000) scale(0.100000,-0.100000)"
fill="#000000" stroke="none">
<path d="M0 4665 l0 -3015 26 11 c15 5 29 7 32 4 3 -3 1 -5 -5 -5 -5 0 -20 -9
-33 -20 -29 -25 -17 -26 24 -1 53 33 101 7 61 -32 -8 -9 -15 -20 -15 -26 0 -6
-4 -11 -10 -11 -5 0 -10 -7 -10 -16 0 -8 -4 -12 -10 -9 -5 3 -7 0 -4 -8 9 -25
-18 -32 -36 -9 -17 21 -18 21 -18 -21 -1 -39 0 -41 14 -23 13 19 14 19 14 -5
0 -13 9 -31 20 -39 23 -17 27 -50 6 -50 -8 0 -22 -24 -33 -58 -14 -44 -16 -59
-6 -59 6 0 10 4 7 9 -3 4 0 8 5 8 6 0 11 9 11 20 0 11 5 20 11 20 6 0 9 -7 5
-15 -4 -13 -2 -14 14 -5 11 6 20 16 20 23 0 7 -4 6 -10 -3 -20 -31 -10 19 13
68 32 66 38 84 28 77 -5 -3 -11 0 -13 7 -4 12 38 58 53 58 5 0 9 9 9 21 0 14
5 19 14 16 8 -3 22 3 32 14 13 15 19 16 25 7 4 -7 11 -9 15 -5 16 15 -13 29
-36 17 -37 -20 -33 -4 5 19 l36 21 30 -30 c27 -26 33 -28 52 -18 12 7 27 13
32 14 6 0 16 2 23 2 14 2 16 28 3 36 -14 9 -71 -27 -71 -44 0 -27 -20 12 -20
39 0 23 -1 24 -13 6 -10 -13 -16 -15 -22 -6 -4 8 5 23 26 41 19 16 37 29 40
30 3 0 23 13 44 30 20 16 42 27 48 23 6 -3 7 -1 3 5 -3 6 1 17 9 24 9 7 22 19
30 25 7 7 21 10 29 7 12 -4 15 -2 10 9 -4 10 9 25 40 47 25 17 46 29 46 26 0
-3 17 11 38 29 20 19 40 35 44 35 3 0 20 12 37 26 17 14 31 22 31 18 0 -4 -7
-12 -16 -19 -14 -10 -15 -15 -3 -35 20 -34 36 -50 43 -43 3 4 6 2 6 -4 0 -11
-32 -43 -44 -43 -4 0 -15 -7 -23 -16 -13 -13 -18 -13 -25 -2 -7 9 -8 8 -4 -5
3 -10 6 -23 6 -28 0 -20 28 -7 34 16 4 16 16 27 34 31 15 4 30 12 34 18 5 8 8
7 8 -1 0 -7 7 -13 15 -13 20 0 19 -8 -3 -28 -9 -10 -13 -14 -8 -9 16 12 26 8
27 -10 0 -15 2 -15 9 2 5 11 9 14 9 6 1 -8 7 -11 19 -6 14 5 15 4 4 -6 -15
-16 -16 -29 -1 -29 5 0 7 5 4 10 -3 6 1 10 9 10 9 0 16 -7 16 -15 0 -8 6 -15
14 -15 18 0 27 -23 16 -40 -11 -18 -70 -20 -95 -4 -11 8 -27 14 -36 14 -10 0
-19 5 -21 11 -6 18 -74 13 -101 -7 -14 -11 -29 -32 -34 -49 -7 -22 -15 -30
-31 -29 -16 0 -19 -3 -12 -10 12 -12 13 -46 1 -46 -15 0 -43 -71 -37 -94 3
-12 1 -38 -4 -58 -11 -39 -31 -50 -180 -101 -41 -15 -104 -42 -140 -61 -69
-38 -95 -44 -103 -23 -4 7 -8 4 -12 -8 -8 -27 -39 -46 -60 -39 -14 6 -14 8 0
24 13 15 13 17 0 17 -8 0 -15 -6 -15 -14 0 -12 -13 -17 -33 -14 -5 1 -6 -3 -2
-9 3 -6 11 -8 16 -5 5 4 9 -1 9 -9 0 -8 -9 -20 -20 -26 -18 -9 -20 -21 -20
-100 l0 -90 21 21 c19 19 21 20 33 3 12 -15 13 -15 12 7 -1 18 4 23 16 21 11
-2 18 3 18 13 0 9 4 14 9 10 5 -3 12 -1 16 5 4 6 10 8 15 5 4 -3 10 2 14 10 3
8 15 15 26 15 11 0 28 8 38 17 10 10 33 24 52 31 113 43 160 60 160 56 0 -3
10 2 23 9 12 8 49 21 82 30 33 8 80 21 105 27 35 9 61 28 115 83 55 55 90 80
162 115 77 37 95 42 108 32 13 -11 14 -10 10 2 -4 9 1 18 9 21 9 4 16 2 16 -4
0 -6 4 -8 8 -5 4 2 13 1 20 -3 9 -5 7 -19 -7 -57 -39 -100 -91 -251 -112 -329
-12 -44 -25 -87 -29 -95 -5 -9 -31 -22 -59 -30 -28 -7 -53 -20 -56 -27 -2 -8
-10 -11 -15 -8 -6 4 -9 2 -8 -3 2 -6 0 -10 -5 -11 -4 0 -31 -16 -60 -34 -52
-33 -115 -65 -262 -132 -60 -27 -80 -32 -87 -23 -6 10 -8 9 -8 -3 0 -16 -26
-34 -42 -31 -5 1 -8 -3 -8 -10 0 -6 -3 -9 -6 -6 -3 4 -14 -1 -24 -10 -37 -35
-140 -93 -152 -86 -7 4 -10 4 -6 -1 4 -4 1 -14 -7 -21 -16 -17 -29 -18 -19 -3
4 8 -1 9 -15 4 -16 -5 -31 2 -59 26 l-37 33 -3 -265 c-1 -157 1 -265 7 -267 6
-2 6 -15 0 -35 -5 -18 -9 -51 -9 -74 0 -40 2 -43 27 -43 26 0 26 0 7 21 -19
22 -19 22 4 10 12 -6 22 -16 22 -21 0 -6 5 -10 10 -10 6 0 10 6 10 14 0 8 7
16 15 20 17 6 20 26 4 26 -5 0 -7 -4 -4 -10 3 -5 1 -10 -4 -10 -18 0 -12 26 9
45 18 16 20 16 20 2 0 -29 1 -32 16 -48 16 -18 78 -24 68 -7 -5 7 -2 8 5 4 7
-5 10 -14 7 -22 -3 -8 1 -14 9 -14 8 0 16 8 16 18 3 31 6 57 7 68 1 7 13 14
27 16 13 3 23 2 21 -1 -4 -6 26 -38 31 -33 2 1 13 1 26 1 18 -1 16 -3 -8 -9
-16 -4 -24 -8 -16 -9 17 -1 -25 -41 -43 -41 -6 0 -4 5 4 10 13 8 12 11 -5 24
-18 13 -20 13 -26 -7 -7 -29 10 -35 98 -36 61 -1 77 3 98 21 13 11 22 25 19
29 -2 4 1 11 7 14 13 8 38 -23 39 -47 0 -16 12 -18 105 -18 89 0 104 2 99 15
-4 8 -10 15 -15 15 -5 0 -9 7 -9 15 0 8 -4 15 -9 15 -5 0 -14 13 -21 30 -7 16
-16 30 -21 30 -5 0 -9 5 -9 11 0 5 3 8 8 6 7 -4 43 29 37 35 -1 1 11 13 26 26
l29 24 1 -54 c0 -29 4 -62 8 -73 5 -12 4 -25 -2 -33 -7 -9 -6 -20 1 -37 l12
-25 680 0 680 0 1 43 c1 36 2 38 9 17 7 -22 8 -20 7 13 -1 20 -5 37 -10 37 -4
0 -5 5 -1 11 3 6 8 36 9 67 5 75 10 98 34 135 12 18 34 60 50 94 17 35 48 89
69 120 22 32 49 78 62 103 l23 45 -23 -20 c-12 -11 -26 -29 -31 -40 -5 -11
-28 -49 -50 -85 -23 -36 -52 -87 -65 -115 -17 -35 -22 -41 -17 -20 3 17 14 47
24 67 11 21 19 45 19 55 0 10 10 34 23 53 12 19 28 53 36 75 20 63 35 95 44
95 4 0 0 -16 -8 -37 -22 -52 -12 -52 17 0 23 41 49 141 28 107 -5 -8 -11 -12
-14 -9 -5 4 35 108 75 194 41 90 72 178 78 217 9 58 17 68 24 31 6 -32 48 -95
160 -247 89 -120 89 -101 3 -224 -38 -53 -56 -71 -69 -68 -13 3 -15 1 -8 -8 7
-9 -4 -35 -42 -95 -29 -45 -58 -94 -66 -109 -8 -15 -26 -45 -40 -67 -14 -22
-30 -54 -36 -70 -12 -33 -128 -254 -170 -322 l-26 -43 565 0 c339 0 567 4 571
9 3 5 9 29 14 53 25 119 97 314 180 484 16 34 33 77 36 97 4 20 16 43 26 53
10 9 19 23 19 29 0 17 28 39 49 40 9 0 41 18 71 40 30 22 59 38 65 37 5 -2 7
0 3 3 -4 4 3 16 15 25 12 10 19 22 14 26 -4 4 -18 -2 -30 -14 -13 -12 -27 -19
-31 -15 -4 5 -6 3 -4 -3 1 -7 -22 -31 -52 -55 -49 -40 -52 -41 -30 -12 14 17
32 33 41 36 19 5 52 67 47 87 -2 7 4 14 12 15 9 1 31 13 50 25 19 12 26 19 15
15 -11 -4 -65 -23 -120 -42 -55 -19 -105 -39 -112 -45 -18 -15 -17 6 3 43 8
17 14 33 11 35 -2 2 -14 -18 -26 -45 -19 -40 -32 -53 -74 -72 -28 -13 -75 -38
-104 -56 l-53 -32 0 29 c0 21 10 39 36 62 20 18 86 82 147 143 93 92 111 106
117 91 5 -16 10 -11 24 24 20 51 150 190 178 190 10 0 18 -3 18 -6 0 -11 -23
-48 -42 -68 -25 -27 -61 -96 -50 -96 14 0 39 32 62 82 31 67 47 78 71 49 34
-42 43 -99 26 -161 -9 -30 -14 -56 -12 -58 5 -6 39 102 37 118 -2 11 2 9 13
-4 17 -23 19 -36 5 -36 -13 0 -13 -33 1 -47 8 -8 6 -20 -7 -44 -9 -19 -19 -28
-21 -22 -3 9 -10 10 -24 3 -14 -8 -18 -7 -15 2 1 7 1 10 -1 5 -3 -4 -10 -4
-15 -1 -7 4 -8 2 -4 -4 4 -6 -11 -38 -32 -70 -40 -60 -69 -130 -36 -87 9 11
20 19 25 17 6 -1 40 13 77 32 37 18 89 42 115 52 26 11 57 27 67 37 11 9 23
17 27 17 15 0 113 -97 113 -111 0 -8 9 -4 23 10 15 16 18 25 9 28 -7 3 -20 19
-29 36 -12 25 -85 119 -113 147 -67 67 -190 243 -261 375 -35 65 -80 128 -140
195 -82 92 -88 101 -79 126 9 23 8 25 -6 20 -14 -5 -15 -4 -4 9 7 8 16 12 21
9 13 -8 65 51 73 82 9 34 -11 55 -39 44 -17 -7 -17 -9 -2 -9 20 -1 20 0 3 -42
-7 -19 -16 -42 -19 -52 -6 -15 -10 -15 -26 -5 -15 9 -28 9 -58 0 l-38 -12 30
26 30 25 -55 -6 c-30 -4 -64 -8 -75 -9 -35 -4 -64 -25 -81 -59 -9 -18 -23 -40
-31 -49 -14 -16 -18 -16 -54 2 -21 11 -45 20 -53 20 -8 0 -24 10 -35 22 -16
16 -18 25 -9 35 6 8 17 12 24 9 17 -7 30 34 14 44 -7 4 -10 15 -7 24 3 8 0 19
-8 23 -7 5 -20 32 -27 62 -8 30 -21 59 -30 65 -27 16 -71 -5 -88 -42 -23 -47
-130 -106 -146 -80 -4 7 -2 8 4 4 8 -5 10 -1 6 9 -4 10 -10 13 -16 7 -6 -6 -6
-17 1 -31 18 -33 -37 -97 -90 -105 -25 -4 -42 -13 -46 -24 -3 -9 -20 -41 -37
-70 -25 -43 -35 -52 -53 -49 -16 3 -20 0 -15 -11 4 -11 1 -13 -8 -7 -9 5 -11
4 -6 -4 12 -19 -105 -141 -136 -141 -13 0 -8 32 21 135 30 106 55 165 71 165
13 0 13 -40 -1 -79 -10 -27 -9 -35 5 -49 15 -15 18 -15 26 -2 5 8 10 23 10 33
0 11 6 42 14 70 8 29 17 85 21 126 4 42 15 89 26 110 10 20 19 45 19 56 0 21
17 45 32 45 4 0 8 -9 8 -20 0 -11 6 -20 14 -20 8 0 17 -15 20 -35 14 -71 66
-25 66 58 0 34 -20 73 -32 62 -3 -3 -2 10 0 28 4 27 6 29 13 12 6 -16 8 -12 8
15 1 27 -2 32 -10 20 -7 -11 -8 -6 -3 20 3 19 12 38 19 42 10 6 11 16 3 40 -6
24 -5 50 5 93 l14 60 51 -80 c51 -80 88 -136 107 -158 6 -7 42 -60 82 -119 48
-72 70 -113 66 -126 -3 -11 6 -36 20 -58 24 -40 57 -73 57 -59 0 4 7 2 15 -5
8 -7 15 -17 15 -23 0 -6 -7 -2 -15 9 -14 18 -14 18 -15 1 0 -11 9 -21 20 -24
16 -4 18 -9 9 -25 -6 -11 -9 -22 -6 -24 2 -2 9 6 16 19 12 23 60 47 93 47 9 0
42 12 73 26 35 15 72 24 92 22 37 -3 66 22 37 32 -11 4 4 18 48 46 78 49 114
65 132 58 7 -3 40 8 72 25 76 38 133 61 150 61 28 0 301 140 387 198 50 34
141 90 180 109 15 8 27 19 27 24 0 5 9 9 20 9 38 0 21 -88 -32 -169 -35 -52
-31 -66 5 -19 38 50 76 130 69 146 -3 8 3 21 13 28 10 8 14 14 7 14 -7 0 -9 7
-5 18 9 22 29 42 42 42 6 0 10 3 10 8 -3 19 2 26 11 12 7 -12 10 -11 16 5 7
19 104 117 104 106 0 -4 4 -1 8 6 10 16 113 24 110 9 -1 -6 6 -37 16 -68 37
-114 11 -226 -87 -378 -53 -82 -68 -100 -79 -94 -4 3 -8 -4 -8 -15 0 -11 -12
-29 -26 -40 -15 -12 -22 -21 -17 -21 18 0 70 53 98 100 39 64 64 90 83 83 11
-5 14 -2 9 10 -4 11 1 20 13 27 20 11 20 10 3 -27 -10 -21 -20 -40 -23 -43 -3
-3 -13 -23 -23 -44 -15 -31 -16 -41 -5 -47 8 -5 9 -9 2 -9 -6 0 -14 -13 -17
-29 -3 -16 -20 -50 -36 -76 -30 -47 -35 -47 -44 0 -2 11 -6 -8 -8 -43 l-4 -63
20 24 c38 47 80 112 77 120 -1 4 2 7 8 7 5 0 10 9 10 20 0 11 4 20 8 20 12 0
34 68 26 81 -4 7 -3 9 4 5 20 -12 186 264 169 281 -6 6 -27 -39 -27 -57 0 -5
-15 -24 -32 -42 -18 -18 -44 -56 -58 -85 -14 -29 -29 -52 -33 -53 -5 0 -6 3
-4 8 2 4 19 38 37 76 30 63 32 75 27 136 -5 59 -3 72 18 106 28 46 31 42 10
-16 -16 -44 -21 -130 -7 -130 4 0 15 34 26 76 21 86 39 127 51 116 4 -4 5 3 2
15 -3 13 -1 26 4 29 9 5 13 -8 10 -36 -1 -12 1 -11 12 2 13 17 15 17 32 -2 9
-10 15 -26 12 -34 -4 -9 0 -28 8 -43 43 -86 47 -101 29 -128 -9 -14 -19 -25
-23 -25 -12 0 -41 -80 -37 -102 3 -22 -9 -57 -24 -68 -11 -8 -81 -110 -75
-110 2 0 -29 -51 -69 -113 -40 -61 -83 -132 -96 -157 -12 -25 -35 -63 -50 -85
-15 -22 -49 -74 -76 -115 -26 -41 -68 -100 -92 -130 -63 -79 -65 -82 -87 -125
-11 -21 -25 -43 -30 -49 -6 -6 -23 -31 -39 -56 -16 -25 -44 -59 -62 -77 -18
-17 -45 -50 -59 -74 -15 -23 -47 -63 -71 -88 -24 -25 -44 -52 -44 -61 -1 -8
-7 -26 -15 -40 l-14 -25 -1 25 0 25 -19 -24 c-10 -13 -16 -31 -14 -40 2 -9 -5
-27 -16 -40 -24 -28 -27 -46 -7 -38 10 4 13 1 9 -8 -3 -8 -9 -13 -13 -10 -5 3
-18 -11 -30 -30 -12 -19 -25 -33 -29 -30 -18 10 -106 -108 -95 -127 4 -7 4
-10 0 -6 -4 3 -32 -22 -62 -58 -56 -65 -70 -92 -33 -58 22 19 22 19 8 -4 -8
-12 -19 -20 -26 -18 -6 3 -26 -17 -43 -45 -18 -27 -36 -49 -42 -49 -5 0 -6 -5
-2 -12 4 -7 3 -8 -4 -4 -6 4 -18 -6 -27 -23 -15 -31 -42 -61 -84 -96 -15 -12
-21 -14 -16 -5 5 8 17 21 27 28 24 18 74 92 81 122 5 22 5 23 -7 7 -18 -24
-29 -21 -16 4 7 11 9 23 6 26 -3 3 -9 -3 -12 -13 -4 -10 -13 -26 -19 -34 -7
-8 -16 -26 -19 -40 -7 -24 -6 -24 19 5 31 35 16 3 -16 -35 -11 -14 -18 -19
-14 -12 15 28 -5 9 -26 -25 -34 -56 -109 -151 -171 -214 -97 -99 -193 -89 866
-89 l933 0 7 37 c3 21 6 59 6 86 0 26 5 47 10 47 23 0 80 75 80 105 0 9 4 13
10 10 5 -3 15 14 22 38 7 28 16 43 24 40 7 -2 15 5 19 16 10 32 35 40 146 48
95 6 102 5 96 -11 -4 -10 -7 -21 -7 -26 0 -4 -22 -10 -50 -14 -53 -7 -61 -29
-14 -40 14 -4 27 -13 30 -21 11 -29 -80 -195 -107 -195 -5 0 -21 12 -34 26
-29 31 -27 34 -29 -68 l-1 -78 31 0 c26 0 33 5 40 28 4 15 8 32 8 37 1 6 21
11 44 13 l44 3 -27 -36 c-29 -37 -27 -58 3 -37 9 7 51 28 92 48 l75 37 55 -19
c30 -10 67 -31 82 -46 35 -36 64 -37 70 -3 3 14 1 28 -4 31 -5 3 -8 27 -7 52
1 26 -7 79 -19 117 -29 98 -41 245 -47 575 -3 157 -8 357 -10 445 -3 88 -8
219 -10 290 -2 72 -7 138 -11 149 -9 24 12 37 42 25 37 -13 258 3 280 22 6 5
23 10 38 11 14 1 26 6 26 10 0 4 10 5 22 3 23 -5 98 14 98 24 0 3 21 7 46 8
25 1 52 7 58 12 9 7 16 7 24 -1 8 -8 15 -8 25 0 7 6 29 14 48 16 31 5 57 12
172 46 43 13 50 10 54 -25 2 -13 11 -43 19 -67 23 -62 54 -168 61 -202 2 -16
18 -75 35 -130 16 -56 35 -128 43 -161 14 -64 183 -893 191 -935 13 -70 17
-86 27 -91 5 -4 16 -51 23 -105 21 -150 15 -144 132 -143 l99 1 -2 56 c-2 50
-97 537 -127 647 -5 22 -11 49 -13 60 -5 46 -28 177 -45 265 -11 52 -28 151
-40 220 -11 69 -24 134 -29 145 -4 11 -16 45 -26 75 -10 30 -33 93 -51 140
-30 79 -84 269 -84 296 0 7 15 15 33 19 40 8 84 22 167 51 95 34 186 55 204
48 15 -6 16 240 16 2825 l0 2831 -3840 0 -3840 0 0 -3015z m4296 2319 c9 -37
-10 -52 -36 -29 -32 29 -25 46 22 54 4 0 11 -11 14 -25z m-46 -33 c13 -25 13
-34 0 -26 -16 10 -32 45 -21 45 6 0 15 -9 21 -19z m107 -20 c-4 -16 2 -21 24
-26 16 -4 29 -11 29 -17 0 -6 7 -8 15 -4 8 3 14 0 12 -7 -1 -7 6 -11 16 -9 9
2 17 -3 17 -9 0 -7 -3 -9 -6 -6 -4 3 -14 2 -23 -2 -21 -11 -61 4 -61 24 0 8
-8 15 -18 15 -14 0 -18 8 -18 30 0 17 4 30 9 30 5 0 7 -9 4 -19z m-121 -12 c3
-6 1 -15 -6 -19 -9 -6 -6 -10 11 -13 19 -3 17 -5 -9 -6 -29 -1 -32 1 -23 18 6
10 7 21 4 25 -3 3 -1 6 5 6 6 0 14 -5 18 -11z m121 -91 c-8 -13 -13 -14 -19
-5 -12 18 -10 23 11 23 15 0 17 -3 8 -18z m158 12 c3 -5 -1 -10 -9 -10 -9 0
-21 -9 -28 -20 -16 -26 -28 -26 -28 0 0 12 10 24 23 30 29 12 35 12 42 0z
m-17 -45 c-5 -26 5 -34 18 -14 4 8 9 7 15 -2 6 -10 9 -5 9 16 0 23 3 26 10 15
5 -8 7 -27 5 -42 -5 -26 -3 -28 25 -28 18 0 33 -6 36 -15 4 -8 13 -15 21 -15
8 0 29 -11 45 -26 18 -14 38 -23 47 -20 14 5 14 5 1 -6 -17 -15 -23 -51 -7
-41 17 10 58 13 52 3 -3 -4 2 -11 11 -14 8 -3 13 -2 10 3 -3 4 8 8 24 7 32 -1
36 -6 20 -22 -7 -7 -3 -17 12 -30 14 -11 18 -13 10 -3 -14 19 -6 29 24 29 24
0 59 -44 48 -62 -4 -6 -3 -8 3 -5 5 3 18 -6 29 -20 20 -28 27 -63 12 -63 -5 0
-6 -5 -2 -12 5 -8 2 -9 -10 -5 -10 4 -22 7 -28 7 -6 0 -6 6 2 15 10 13 9 15
-9 15 -12 0 -20 -4 -17 -9 4 -5 -10 -5 -32 0 -20 5 -57 9 -82 9 -26 0 -51 5
-58 12 -9 9 -12 9 -12 -1 0 -7 -4 -10 -9 -6 -5 3 -29 -1 -53 -10 l-43 -15 -27
32 c-31 36 -25 50 21 52 38 1 40 14 4 21 -16 4 -39 9 -53 12 -14 3 -29 7 -35
7 -22 2 -55 28 -49 38 4 6 3 8 -4 4 -6 -3 -13 -2 -17 4 -9 15 -25 12 -25 -5 0
-8 -5 -15 -11 -15 -5 0 -8 4 -5 9 3 5 -8 11 -25 15 -26 5 -29 9 -24 28 5 18 4
19 -4 8 -9 -12 -11 -12 -17 3 -3 9 -1 24 6 32 13 16 35 21 26 7 -3 -5 8 -8 24
-8 16 0 27 3 25 7 -3 3 4 18 15 31 10 14 21 37 24 51 2 15 7 31 11 37 11 18
17 11 13 -15z m-84 -20 c-4 -8 -10 -12 -15 -9 -11 6 -2 24 11 24 5 0 7 -7 4
-15z m46 -5 c0 -5 -5 -10 -11 -10 -5 0 -7 5 -4 10 3 6 8 10 11 10 2 0 4 -4 4
-10z m-145 -20 c-3 -5 -12 -10 -18 -10 -7 0 -6 4 3 10 19 12 23 12 15 0z m71
-14 c0 -15 -5 -21 -10 -16 -5 5 -6 16 -3 24 9 23 15 19 13 -8z m34 -28 c0 -32
-15 -19 -17 15 -2 23 0 28 7 17 5 -8 10 -23 10 -32z m-2046 -273 c-4 -8 -8
-15 -10 -15 -2 0 -4 7 -4 15 0 8 4 15 10 15 5 0 7 -7 4 -15z m2650 -1 c3 -9 6
-23 5 -32 0 -11 -2 -12 -6 -4 -2 6 -11 12 -19 12 -14 0 -19 21 -7 33 11 11 20
8 27 -9z m-2696 -51 c-14 -16 -35 -39 -47 -53 -73 -89 -70 -87 -71 -62 0 12 5
21 13 20 7 -2 12 8 13 23 1 15 4 34 7 42 3 9 1 17 -6 20 -6 2 -2 6 11 9 19 5
20 3 12 -12 -6 -10 -9 -29 -9 -42 2 -23 2 -23 6 -1 2 13 15 31 29 42 13 10 24
23 24 28 0 17 24 33 34 23 7 -7 1 -19 -16 -37z m2287 -2 c35 -16 83 -47 105
-69 30 -29 47 -38 62 -34 14 3 19 1 14 -6 -3 -6 -2 -13 4 -17 5 -3 10 3 10 14
0 15 -7 21 -22 22 -15 1 -10 4 12 8 l35 6 -31 30 c-17 17 -34 41 -37 54 -6 23
-5 23 61 16 37 -4 83 -13 102 -21 70 -30 146 -68 194 -97 40 -25 51 -28 67
-19 24 16 52 16 43 0 -5 -7 -3 -8 5 -3 7 4 33 -4 60 -18 26 -15 66 -29 90 -33
44 -7 39 -24 -6 -24 -14 0 -23 -6 -23 -15 0 -11 12 -15 48 -16 26 0 56 -3 67
-6 11 -2 44 -8 74 -12 69 -9 81 -24 168 -201 37 -74 81 -157 98 -185 17 -27
51 -87 75 -132 45 -86 62 -104 35 -38 -27 64 -10 49 20 -17 15 -35 53 -105 84
-157 31 -52 74 -128 96 -168 23 -40 48 -82 58 -93 9 -11 14 -20 11 -20 -3 0 4
-13 15 -29 12 -16 23 -39 25 -52 2 -13 8 -23 14 -22 11 3 52 -78 52 -102 0 -9
8 -19 18 -23 9 -4 17 -14 18 -22 1 -13 78 -128 164 -244 89 -120 176 -231 182
-234 5 -2 8 -9 8 -15 0 -6 12 -43 26 -82 31 -82 49 -132 60 -160 10 -28 10
-26 19 -70 4 -22 12 -48 17 -58 5 -10 12 -31 14 -45 3 -15 16 -60 29 -101 14
-40 25 -81 25 -91 0 -9 7 -31 16 -48 29 -59 19 -74 -71 -98 -77 -20 -240 -77
-308 -108 -94 -42 -135 -57 -215 -76 -48 -12 -117 -33 -155 -48 -37 -14 -69
-23 -72 -20 -3 3 -8 25 -11 49 -3 24 -23 112 -46 194 -57 208 -55 194 -24 188
35 -7 34 16 0 48 l-27 24 17 -33 c17 -33 17 -33 -4 -22 -11 6 -18 15 -15 20 3
5 1 11 -5 15 -17 10 -11 25 9 25 10 0 25 -10 33 -22 22 -34 82 -90 85 -81 2 5
-3 30 -11 55 l-14 46 44 43 c66 64 61 76 -24 60 -50 -10 -116 3 -151 31 -31
24 -20 23 26 -2 57 -30 102 -26 149 13 21 19 59 45 84 60 61 35 97 95 43 72
-10 -5 -29 -10 -41 -11 -13 -2 -35 -10 -48 -19 -14 -9 -29 -13 -34 -10 -6 3
-10 2 -10 -4 0 -9 -83 -31 -132 -34 -13 0 -26 -5 -29 -9 -7 -11 -101 31 -116
52 -6 9 -29 22 -50 28 -40 12 -123 75 -123 94 0 6 -8 17 -17 25 -10 8 -11 11
-3 7 8 -5 1 10 -16 31 -64 83 -108 188 -169 405 -21 74 -45 147 -52 163 -8 15
-16 44 -18 65 -7 50 -102 432 -126 507 -11 33 -20 67 -19 75 0 8 2 26 3 40 2
21 -4 27 -43 39 -25 8 -79 28 -120 46 -61 26 -85 31 -127 28 -44 -4 -53 -2
-62 16 -13 23 -41 27 -73 10 -12 -6 -41 -16 -65 -23 -25 -6 -45 -15 -45 -21 0
-18 -20 -35 -42 -35 -26 -1 -54 -21 -49 -36 2 -6 -8 -19 -22 -28 -23 -15 -63
-79 -62 -100 0 -4 -18 -31 -40 -60 -92 -117 -283 -185 -343 -121 -25 26 -25
27 26 85 12 14 47 72 78 130 31 58 60 104 66 102 5 -1 10 3 10 9 0 5 4 7 10 4
6 -3 7 1 4 10 -4 8 -1 22 6 30 7 9 10 18 7 22 -4 3 -1 13 6 21 10 13 9 14 -2
7 -10 -5 -12 -4 -7 4 4 6 10 28 12 49 6 45 69 110 106 107 12 -1 29 3 37 9 8
6 -4 -17 -27 -50 -43 -64 -69 -121 -58 -131 5 -6 30 46 28 58 -1 4 22 33 51
65 29 33 74 86 101 119 75 92 172 184 202 191 30 8 105 -5 258 -43 54 -13 108
-22 119 -19 11 3 36 -2 56 -10 21 -9 62 -14 106 -13 71 2 106 -9 132 -41 11
-13 12 -13 13 0 0 24 -81 90 -105 85 -86 -19 -213 -8 -298 24 -14 5 -27 7 -30
4 -3 -3 -30 3 -59 13 -29 10 -60 18 -68 19 -66 8 -116 20 -122 29 -6 8 -8 7
-8 -1 0 -7 -17 -21 -38 -32 -21 -11 -57 -40 -80 -65 l-42 -45 -42 15 c-23 8
-49 21 -58 28 -8 8 -26 14 -40 15 -202 1 -268 1 -285 -3 -11 -2 -38 -7 -60
-11 -22 -4 -60 -16 -85 -27 -25 -11 -69 -31 -98 -44 -98 -45 -195 -26 -254 49
-19 24 -24 42 -8 32 21 -13 9 12 -17 34 l-26 24 34 14 c19 8 69 23 112 33 44
11 90 26 103 34 13 9 33 16 45 16 16 0 20 5 17 18 -6 22 29 43 108 66 28 8 67
22 85 32 19 10 40 17 47 16 6 -2 12 2 12 8 0 6 4 9 9 5 5 -3 12 -1 16 5 8 14
65 13 65 -1 0 -7 7 -8 18 -4 9 4 60 11 112 15 52 4 98 8 103 8 4 1 36 -11 72
-27z m-2274 -19 c-5 -10 -18 -25 -28 -33 -12 -10 -11 -5 6 19 24 35 38 43 22
14z m-178 -17 c-3 -9 -8 -14 -10 -11 -3 3 -2 9 2 15 9 16 15 13 8 -4z m-63 -8
c0 -2 -10 -12 -22 -23 l-23 -19 19 23 c18 21 26 27 26 19z m2698 -14 c-10 -2
-26 -2 -35 0 -10 3 -2 5 17 5 19 0 27 -2 18 -5z m-2710 -43 c-7 -11 -17 -20
-22 -20 -5 0 -1 9 9 20 10 11 20 20 22 20 2 0 -2 -9 -9 -20z m242 7 c0 -2 -12
-14 -27 -28 l-28 -24 24 28 c23 25 31 32 31 24z m80 -10 c0 -2 -10 -12 -22
-23 l-23 -19 19 23 c18 21 26 27 26 19z m1535 -17 c-3 -5 -14 -10 -23 -10 -15
0 -15 2 -2 10 20 13 33 13 25 0z m-1834 -377 c-9 -15 -10 -14 -7 7 8 44 8 45
13 28 2 -10 0 -25 -6 -35z m3372 -1480 c6 -9 5 -13 -4 -13 -8 0 -22 14 -31 31
-25 43 -22 57 4 23 12 -16 26 -35 31 -41z m-2045 6 c21 -7 40 -26 58 -57 15
-26 35 -58 46 -71 22 -28 42 -97 39 -131 -5 -55 -39 -107 -84 -129 -24 -11
-48 -21 -53 -21 -5 0 -31 -21 -56 -47 -34 -35 -48 -57 -50 -83 -3 -29 -8 -36
-36 -44 -18 -5 -36 -6 -40 -2 -4 4 -7 40 -7 78 l0 71 66 36 c89 49 159 108
159 135 0 17 2 18 10 6 18 -29 10 9 -14 62 -15 34 -34 59 -54 71 -35 20 -131
23 -183 5 -46 -16 -109 -58 -109 -73 0 -7 -9 -23 -19 -36 l-20 -24 -35 34
c-20 19 -36 41 -36 47 0 7 25 40 55 72 53 58 117 94 185 105 52 9 148 7 178
-4z m1802 -23 c0 -3 -4 -8 -10 -11 -5 -3 -10 -1 -10 4 0 6 5 11 10 11 6 0 10
-2 10 -4z m259 -47 c7 11 11 9 21 -9 15 -29 -1 -50 -25 -30 -16 13 -19 6 -16
-32 3 -24 -22 -23 -44 2 -10 11 -13 20 -7 20 6 0 15 -7 20 -16 8 -14 10 -13
15 5 6 24 -7 33 -51 36 -14 0 -27 6 -29 12 -3 7 12 9 42 7 30 -2 45 0 45 9 0
8 4 7 10 -3 8 -13 11 -13 19 -1z m79 -96 c24 -59 27 -71 13 -63 -31 16 -42 37
-48 91 -3 30 -3 52 -1 49 3 -3 19 -38 36 -77z m69 -89 c-3 -3 -13 8 -21 25
-23 43 -19 52 5 13 12 -18 19 -35 16 -38z m105 -26 c12 -13 34 -28 48 -35 25
-12 25 -12 -5 -6 -16 4 -38 6 -49 5 -10 0 -16 2 -12 5 3 3 -3 13 -14 20 -11 8
-18 19 -15 24 10 15 23 11 47 -13z m-2415 -443 c1 -16 4 -42 8 -57 5 -21 3
-29 -9 -34 -17 -6 -103 23 -113 38 -16 27 53 90 92 85 15 -1 20 -10 22 -32z
m4003 -73 c9 -10 21 -17 28 -14 7 2 12 -6 12 -21 0 -13 3 -45 6 -70 l6 -45
-38 1 c-59 1 -342 -60 -424 -90 -8 -4 -23 -5 -33 -4 -25 3 -67 -26 -67 -47 0
-14 -2 -14 -9 -3 -7 11 -15 11 -41 2 -18 -6 -47 -11 -64 -11 -36 0 -75 -19
-41 -20 17 0 17 -2 5 -10 -8 -5 -31 -10 -50 -10 -26 0 -31 3 -20 10 24 16 -29
11 -70 -6 l-35 -14 37 4 c29 4 36 1 31 -10 -4 -10 3 -14 24 -14 16 0 33 4 39
9 10 11 134 41 165 41 10 0 19 -7 19 -15 0 -8 6 -15 13 -15 6 0 37 -12 67 -26
42 -20 51 -27 40 -35 -10 -7 -3 -8 25 -3 22 4 42 11 43 15 2 5 13 9 24 9 12 0
44 7 72 15 68 19 227 58 247 60 9 0 28 9 42 18 24 16 25 15 36 -11 15 -39 29
-100 37 -157 3 -27 10 -60 15 -72 11 -29 -3 -37 -58 -34 -23 1 -66 -2 -95 -8
-29 -6 -108 -22 -176 -36 -135 -28 -173 -30 -204 -14 -20 11 -20 9 -13 -48 6
-57 5 -60 -19 -71 -18 -8 -26 -20 -27 -39 -2 -24 -2 -25 -6 -5 -5 27 -3 27
-83 2 -36 -11 -139 -36 -228 -55 -90 -19 -167 -37 -171 -39 -3 -2 -27 -7 -51
-11 -25 -3 -54 -9 -65 -12 -11 -3 -31 -8 -45 -9 -14 -2 -47 -6 -74 -10 -29 -4
-51 -3 -55 3 -4 7 -24 8 -56 3 -27 -4 -53 -6 -56 -4 -4 2 -9 23 -13 46 -4 24
-16 72 -27 106 -18 54 -19 66 -8 76 8 7 66 36 129 65 255 118 334 161 319 176
-13 12 -92 12 -153 -1 -103 -21 -237 -65 -269 -86 -15 -11 -32 -18 -38 -16
-19 6 -58 126 -45 136 13 11 47 25 61 27 26 3 54 17 59 30 5 15 2 14 -76 -19
-47 -20 -48 -20 -48 3 0 14 11 23 38 31 20 7 78 31 127 55 50 23 115 48 145
54 61 13 239 66 285 86 162 69 271 106 308 104 23 -1 51 2 62 8 35 19 105 26
105 12 0 -9 4 -8 13 3 8 11 47 22 112 32 186 29 230 29 255 -2z m-2141 -431
c64 -40 80 -53 59 -48 -4 1 -15 -8 -24 -21 -13 -18 -13 -26 -3 -38 19 -23 -5
-236 -41 -359 -8 -26 -8 -25 -3 8 4 30 1 41 -13 52 -10 7 -22 11 -26 9 -5 -3
-8 -1 -8 4 0 14 -38 22 -43 9 -2 -8 -11 -5 -23 8 -18 17 -18 18 -1 12 15 -6
17 -3 12 14 -4 11 5 58 19 107 14 48 31 107 37 130 8 36 14 43 30 39 37 -10 6
15 -57 45 -67 32 -68 35 -58 99 l6 35 32 -30 c18 -17 65 -51 105 -75z m2331
-329 c13 -45 72 -340 95 -471 9 -51 13 -106 10 -121 -5 -22 -2 -29 12 -33 15
-4 14 -5 -4 -6 -12 0 -28 -9 -35 -19 -7 -11 -24 -21 -38 -24 -14 -3 -61 -16
-105 -28 -44 -12 -89 -23 -100 -25 -39 -7 -179 -46 -196 -56 -10 -5 -22 -8
-26 -7 -16 3 -83 -14 -83 -22 0 -8 -9 -10 -135 -35 -44 -8 -87 -18 -95 -22
-15 -6 -19 -7 -80 -18 -51 -10 -75 -24 -61 -38 6 -6 11 -13 11 -17 0 -3 -43
-6 -96 -7 -53 -2 -101 -6 -106 -10 -6 -3 -25 -7 -42 -9 -17 -1 -69 -5 -116 -9
-46 -3 -87 -8 -91 -11 -14 -9 -114 -14 -125 -6 -7 4 -15 32 -18 62 -4 30 -9
75 -12 100 -3 24 -14 71 -25 104 -11 32 -19 68 -18 80 2 11 -1 35 -4 51 -4 17
-9 50 -12 75 -3 25 -7 61 -10 80 -11 77 -15 146 -9 177 5 28 10 33 35 33 18 0
32 -6 36 -16 3 -9 9 -11 12 -6 10 15 61 24 61 10 0 -9 3 -9 11 -1 6 6 17 9 23
7 14 -5 124 17 226 45 75 21 96 26 159 35 44 7 52 16 15 17 -32 0 -25 4 44 27
28 9 33 9 28 -4 -7 -18 -1 -18 102 8 71 18 82 23 62 29 -23 6 -23 7 -3 8 12 1
30 4 40 7 15 5 15 4 3 -5 -11 -8 -12 -11 -2 -11 7 0 20 6 28 14 19 20 54 8 65
-22 9 -24 10 -24 24 -6 8 10 15 25 15 32 0 11 12 16 36 13 24 -3 269 50 272
59 2 5 15 7 30 4 15 -2 59 4 97 14 39 10 73 17 77 15 4 -2 12 -20 18 -41z
m-2419 -95 c-10 -9 -11 -8 -5 6 3 10 9 15 12 12 3 -3 0 -11 -7 -18z m1649 3
c-18 -12 -43 -13 -36 -2 2 4 15 8 28 9 18 2 19 0 8 -7z m-1533 -42 c-3 -7 -5
-2 -5 12 0 14 2 19 5 13 2 -7 2 -19 0 -25z m1480 26 c-3 -3 -12 -4 -19 -1 -8
3 -5 6 6 6 11 1 17 -2 13 -5z m-1556 -57 c-13 -13 -15 11 -4 40 7 16 8 15 11
-6 2 -13 -1 -28 -7 -34z m-1134 -250 c12 5 14 3 8 -6 -5 -10 -2 -11 14 -6 14
4 23 2 27 -8 5 -13 12 -13 54 -2 26 7 53 16 59 19 17 11 13 -23 -13 -96 -13
-37 -22 -69 -19 -71 12 -13 -61 -49 -175 -86 -71 -23 -143 -52 -161 -65 -18
-13 -49 -27 -69 -31 -20 -4 -49 -13 -64 -21 -16 -8 -33 -12 -38 -9 -12 7 -1
36 20 55 16 14 17 29 7 75 -2 11 -2 14 0 7 3 -7 9 -10 14 -7 5 4 9 1 9 -4 0
-6 7 -11 15 -11 9 0 12 -6 9 -17 -4 -10 5 -5 19 12 14 16 23 33 21 37 -3 5 0
16 6 25 11 17 11 17 6 1 -3 -10 -3 -18 1 -18 3 0 12 8 19 18 12 16 13 16 14 0
0 -9 -5 -20 -11 -24 -6 -3 -8 -15 -5 -27 3 -14 2 -17 -6 -9 -12 12 -38 5 -38
-10 0 -6 7 -8 14 -5 11 4 13 1 9 -10 -5 -13 -2 -13 21 2 15 10 25 23 23 29 -6
16 11 46 26 46 8 0 7 -4 -3 -11 -11 -8 -12 -12 -2 -16 6 -2 9 -10 5 -16 -3 -7
-2 -8 3 -4 5 5 9 12 10 15 0 4 4 16 8 27 15 37 15 45 5 45 -5 0 -12 -7 -15
-15 -4 -8 -10 -15 -15 -15 -5 0 -5 7 0 18 5 9 14 28 19 42 10 24 11 24 11 3 1
-25 15 -30 27 -11 4 7 3 8 -4 4 -17 -11 -15 17 4 40 14 18 15 18 4 -5 -9 -18
-9 -22 0 -16 6 4 26 9 43 11 l32 4 -30 -15 c-23 -11 -24 -13 -6 -9 14 4 27 1
32 -7 6 -10 9 -3 9 19 0 22 -4 31 -11 26 -8 -4 -9 0 -4 15 7 23 -4 28 -24 9
-11 -11 -12 -10 -5 2 5 8 9 21 10 28 3 19 57 67 62 54 2 -6 10 -8 19 -5z
m1083 -77 c0 -5 -5 -10 -11 -10 -5 0 -7 5 -4 10 3 6 8 10 11 10 2 0 4 -4 4
-10z m-3497 -6 c20 -4 37 -10 37 -14 0 -11 -138 -34 -242 -39 -10 -1 -18 -6
-18 -12 0 -16 -31 -38 -52 -39 -37 0 -118 22 -112 32 3 5 12 7 19 4 7 -2 21 4
31 15 9 10 25 19 35 19 10 0 21 5 24 10 4 6 11 8 16 5 5 -4 9 -2 9 4 0 5 10
12 23 14 36 7 189 7 230 1z m336 -18 c7 -5 -14 -37 -60 -92 -39 -46 -72 -84
-73 -84 0 0 -41 -14 -90 -30 -101 -34 -99 -34 -91 -20 3 6 2 10 -3 10 -6 0
-12 -7 -16 -15 -3 -8 -12 -15 -20 -15 -8 0 -30 -9 -48 -19 -18 -11 -57 -22
-85 -26 -29 -4 -53 -11 -53 -16 0 -5 -7 -9 -15 -9 -8 0 -15 6 -15 13 0 21 58
114 85 135 14 12 26 22 25 24 -1 2 2 12 6 23 18 46 49 62 167 85 33 7 78 21
100 31 32 15 57 19 108 16 37 -2 71 -7 78 -11z m-229 -6 c-8 -5 -26 -9 -40 -9
-23 1 -23 2 5 9 43 11 52 11 35 0z m1227 -92 c-3 -8 -6 -5 -6 6 -1 11 2 17 5
13 3 -3 4 -12 1 -19z m-1733 -31 c17 -18 40 -37 50 -42 15 -8 7 -11 -40 -13
-38 -2 -60 2 -66 10 -6 10 -8 9 -8 -2 0 -8 -10 -21 -22 -29 -19 -12 -23 -11
-33 3 -7 9 -16 16 -20 16 -4 0 -2 -6 4 -14 12 -15 -1 -32 -17 -22 -4 2 -9 -4
-9 -15 -2 -22 32 -27 40 -6 4 10 7 10 18 0 18 -17 34 -17 20 0 -12 15 -5 27
16 27 9 0 12 -7 9 -18 -5 -13 -1 -18 17 -18 30 0 52 28 29 38 -20 8 36 12 113
9 56 -2 64 -6 47 -23 -7 -7 -12 -19 -12 -27 0 -9 -7 -29 -15 -45 -8 -15 -15
-35 -15 -42 0 -8 -16 -30 -35 -50 -19 -19 -35 -30 -35 -24 0 20 -49 10 -75
-15 -28 -29 -31 -37 -11 -29 27 11 48 -26 43 -76 -4 -40 -43 -150 -53 -150 -2
0 -15 11 -29 24 -31 28 -40 28 -132 -12 -37 -16 -93 -35 -123 -42 -82 -19
-142 -47 -172 -81 -15 -17 -31 -28 -37 -25 -5 3 -12 -1 -15 -10 -3 -8 -2 -12
4 -9 6 3 10 1 10 -4 0 -6 -7 -11 -16 -11 -12 0 -15 6 -9 23 3 12 9 33 12 47 3
14 12 29 19 33 8 4 14 13 14 18 0 6 -6 7 -12 3 -10 -6 -10 -5 -1 8 7 8 10 17
7 20 -2 3 3 24 12 47 15 39 27 50 37 34 2 -5 2 -2 0 5 -2 11 6 12 39 7 24 -4
52 -12 62 -17 10 -6 39 -7 65 -4 25 4 59 7 74 6 16 0 49 10 75 24 26 13 60 28
77 33 31 9 48 43 22 43 -8 0 -26 9 -40 20 -14 11 -33 20 -44 20 -10 0 -24 9
-31 20 -7 11 -19 20 -27 20 -8 0 -15 7 -15 15 0 10 -10 15 -30 15 -32 0 -61
33 -37 44 6 3 -1 4 -18 0 -16 -3 -34 -10 -40 -15 -7 -7 -4 -8 7 -4 21 8 34
-16 24 -42 -6 -15 -8 -15 -16 -3 -6 8 -10 11 -10 6 0 -5 -6 -3 -13 3 -18 15
-10 64 13 79 16 10 18 9 14 -6 -4 -9 6 -3 20 15 15 18 33 30 40 27 7 -3 13 2
13 10 0 8 -4 13 -9 10 -17 -11 -7 9 15 27 14 12 17 18 8 19 -8 0 -11 3 -8 7 4
3 -1 12 -11 19 -15 12 -15 15 -2 23 16 11 21 9 23 -11 4 -22 29 -78 36 -78 3
0 13 5 21 10 12 8 11 10 -7 10 -13 0 -23 5 -23 11 0 6 9 8 22 4 17 -6 20 -4
15 9 -4 9 -2 16 3 16 6 0 10 5 10 12 0 6 -7 4 -18 -5 -21 -19 -42 -23 -24 -5
8 8 8 17 1 31 -9 15 -7 23 6 36 15 13 17 13 13 1 -7 -18 18 -45 27 -30 3 6 1
10 -4 10 -6 0 -11 7 -11 16 0 8 4 12 10 9 5 -3 7 0 4 8 -3 9 6 18 28 26 18 7
40 17 48 21 24 14 60 2 94 -33z m2511 3 c3 -5 1 -10 -4 -10 -6 0 -11 5 -11 10
0 6 2 10 4 10 3 0 8 -4 11 -10z m-768 -110 c4 -27 1 -25 -17 9 -9 19 -9 22 1
19 7 -2 14 -15 16 -28z m-2036 1 c14 -13 17 -21 9 -26 -6 -4 -15 -18 -20 -31
-10 -27 -30 -33 -30 -9 0 8 -5 15 -10 15 -7 0 -7 6 0 20 8 15 18 19 38 15 25
-5 26 -5 5 6 -18 9 -27 8 -55 -11 l-33 -22 35 31 c19 17 36 31 38 31 1 0 12
-9 23 -19z m1878 -45 c-6 -25 -16 -49 -22 -53 -6 -4 -8 0 -4 9 3 9 11 34 18
57 16 55 23 45 8 -13z m-1059 24 c0 -9 -121 -42 -128 -35 -10 9 6 17 48 22 23
3 37 9 30 13 -6 4 3 7 20 7 16 0 30 -3 30 -7z m-916 -63 c-3 -7 1 -4 9 6 14
16 15 16 21 1 4 -10 -1 -25 -10 -35 -20 -22 -25 -23 -47 -6 -16 11 -16 14 -2
35 16 22 41 21 29 -1z m2536 -18 c0 -6 -4 -7 -10 -4 -5 3 -10 11 -10 16 0 6 5
7 10 4 6 -3 10 -11 10 -16z m-1870 1 c-8 -5 -19 -10 -25 -10 -5 0 -3 5 5 10 8
5 20 10 25 10 6 0 3 -5 -5 -10z m210 2 c0 -5 -8 -16 -18 -25 -10 -10 -29 -39
-42 -67 -21 -45 -28 -51 -74 -65 -28 -9 -58 -18 -66 -21 -13 -5 -13 -4 0 8 8
7 20 22 26 33 6 11 15 19 19 17 5 -2 14 9 20 25 19 46 64 91 93 96 15 2 30 5
35 6 4 0 7 -3 7 -7z m-123 -46 c-9 -14 -35 -40 -57 -58 -33 -26 -38 -34 -25
-38 14 -5 11 -8 -11 -19 -23 -10 -26 -10 -16 2 7 8 9 16 6 19 -11 11 36 88 54
88 14 0 14 2 3 9 -11 7 -6 12 20 19 43 11 46 9 26 -22z m-152 14 c-3 -5 -1
-10 4 -10 6 0 11 5 11 10 0 6 9 10 21 10 19 0 18 -3 -10 -31 -17 -17 -31 -35
-31 -40 0 -6 -16 -17 -35 -25 -40 -17 -48 -28 -9 -14 25 10 26 9 20 -15 -4
-17 -2 -24 6 -21 7 1 10 1 6 -1 -4 -3 -9 -3 -10 -1 -2 2 -14 -7 -28 -20 -13
-12 -30 -20 -37 -17 -11 4 -53 -27 -53 -39 0 -11 67 1 77 14 11 13 14 13 22 1
8 -12 12 -10 22 12 7 15 16 27 20 27 4 0 1 -13 -7 -30 -10 -19 -23 -30 -37
-30 -12 -1 -31 -8 -42 -18 -26 -23 -54 -58 -37 -48 6 4 12 3 12 -2 0 -9 -43
-32 -60 -32 -25 0 -7 37 22 48 17 6 29 15 25 18 -4 4 -13 1 -21 -6 -29 -23
-37 -6 -16 35 11 21 20 45 20 52 0 7 7 28 15 48 8 19 22 51 30 71 8 19 19 33
24 30 5 -3 11 0 14 8 5 12 17 17 60 25 5 0 5 -3 2 -9z m-610 -10 c3 -5 1 -10
-4 -10 -6 0 -11 5 -11 10 0 6 2 10 4 10 3 0 8 -4 11 -10z m648 -55 c-23 -47
-43 -70 -43 -50 0 11 31 79 41 92 26 31 27 9 2 -42z m-537 -20 c-4 -12 0 -14
22 -9 21 5 25 4 15 -6 -6 -7 -9 -18 -7 -25 3 -7 1 -16 -5 -20 -6 -3 -9 0 -6 7
3 8 -7 18 -24 26 -31 14 -33 42 -4 42 9 0 13 -6 9 -15z m344 11 c0 -11 -50
-35 -55 -26 -4 6 4 14 17 19 26 11 38 13 38 7z m2302 -52 c-12 -8 -22 -22 -22
-31 0 -10 -6 -14 -19 -10 -14 3 -17 0 -13 -15 3 -14 7 -16 12 -8 11 18 30 2
30 -25 0 -23 -2 -24 -27 -13 -16 7 -35 18 -44 25 -9 7 -20 10 -24 6 -17 -15
20 32 48 59 16 17 39 28 55 28 l26 0 -22 -16z m-1997 -53 c-15 -31 -33 -52
-47 -56 -51 -14 -77 -28 -72 -37 3 -5 16 -3 29 6 15 10 26 12 30 6 8 -13 -3
-30 -19 -30 -8 0 -19 -7 -26 -15 -11 -13 -10 -14 3 -10 8 4 18 1 23 -6 4 -7 3
-10 -3 -6 -6 4 -22 -8 -36 -26 -26 -34 -71 -46 -63 -17 3 8 10 34 17 57 8 28
28 58 57 85 25 24 54 52 66 64 20 20 40 31 59 33 4 1 -4 -21 -18 -48z m-567
19 c-13 -21 -29 -22 -35 -3 -4 10 11 17 40 22 4 0 2 -8 -5 -19z m494 -10 c-15
-9 -33 -24 -41 -33 -21 -26 -31 -20 -20 13 6 16 15 27 20 24 5 -3 9 -1 9 4 0
5 13 9 30 9 l30 0 -28 -17z m-462 -9 c0 -5 -7 -11 -15 -15 -15 -5 -20 5 -8 17
9 10 23 9 23 -2z m-263 -49 c-10 -2 -26 -1 -35 3 -14 5 -14 8 -2 15 8 5 22 4
34 -3 19 -10 20 -11 3 -15z m184 -5 c-10 -9 -11 -8 -5 6 3 10 9 15 12 12 3 -3
0 -11 -7 -18z m-136 -5 c-3 -3 -11 0 -18 7 -9 10 -8 11 6 5 10 -3 15 -9 12
-12z m536 -26 c-13 -14 -30 -22 -38 -19 -17 6 -7 19 29 37 32 17 36 10 9 -18z
m6 -67 c-22 -48 -67 -113 -67 -95 0 4 6 22 14 41 8 18 12 36 8 39 -3 4 10 22
28 41 18 19 35 33 37 31 2 -2 -7 -28 -20 -57z m-1202 32 c-3 -6 -11 -11 -17
-11 -6 0 -6 6 2 15 14 17 26 13 15 -4z m1064 -42 c-18 -11 -19 -8 -12 20 5 21
7 21 16 6 6 -12 5 -20 -4 -26z m-819 12 c0 -5 -7 -11 -15 -15 -15 -5 -20 5 -8
17 9 10 23 9 23 -2z m870 -16 c-7 -9 -15 -13 -19 -10 -3 3 1 10 9 15 21 14 24
12 10 -5z m-656 -64 c-9 -34 -20 -63 -23 -65 -3 -2 -7 14 -8 36 -2 28 4 50 18
70 12 16 23 27 26 24 2 -2 -3 -32 -13 -65z m667 16 c-6 -6 -11 -22 -11 -36 0
-15 -4 -32 -9 -40 -10 -15 -3 -51 10 -51 5 0 8 8 7 18 -3 44 2 62 21 62 11 0
27 10 36 23 16 21 16 21 9 -18 -3 -22 -16 -50 -27 -62 -11 -13 -18 -26 -14
-29 4 -4 30 17 58 47 28 30 48 48 44 42 -3 -7 -1 -13 4 -13 16 0 10 -19 -20
-65 -14 -22 -45 -78 -69 -125 -61 -120 -119 -217 -160 -271 -19 -25 -75 -112
-125 -192 -49 -81 -93 -147 -97 -147 -5 0 -8 7 -8 15 0 8 5 15 10 15 6 0 10 5
10 11 0 5 -5 7 -11 3 -6 -4 0 13 14 37 14 24 28 60 32 79 4 19 16 53 27 74 20
38 20 41 3 72 -17 31 -16 35 10 125 55 190 115 346 127 334 2 -3 15 6 28 20
23 24 16 37 -8 13 -18 -18 -23 -5 -11 29 5 17 18 34 27 37 9 3 24 9 32 12 10
5 8 -1 -5 -16 l-20 -23 33 19 c19 10 39 25 45 33 10 12 13 11 15 -4 2 -9 -1
-22 -7 -28z m96 -29 c-3 -8 -6 -5 -6 6 -1 11 2 17 5 13 3 -3 4 -12 1 -19z
m1547 -30 c-4 -18 -9 -53 -11 -78 -3 -45 -5 -55 -16 -120 -4 -19 -9 -51 -12
-70 -10 -70 -17 -112 -20 -128 -2 -9 -4 -20 -4 -24 -1 -5 -8 -8 -16 -8 -8 0
-15 -9 -15 -21 0 -12 -4 -17 -11 -14 -6 4 -7 19 -4 37 5 22 -2 47 -28 101 -42
88 -51 109 -48 121 1 5 -3 12 -9 16 -6 4 -12 27 -13 51 -1 35 6 54 32 92 18
26 40 47 50 47 9 0 21 4 27 9 5 5 25 11 44 14 19 2 41 5 48 5 10 2 12 -6 6
-30z m3159 -117 c2 -99 -1 -131 -10 -131 -7 0 -22 -9 -33 -20 -18 -18 -20 -18
-20 -2 0 9 -4 13 -8 7 -12 -17 -142 -78 -150 -71 -3 4 0 11 8 16 8 6 12 10 8
10 -4 0 17 46 47 103 30 56 58 101 62 100 5 -1 26 27 48 62 21 36 41 63 43 61
2 -2 4 -63 5 -135z m-5991 43 c-8 -14 -10 -14 -15 5 -3 12 -1 19 4 15 5 -3 9
1 10 8 0 9 2 10 5 1 3 -7 1 -20 -4 -29z m-32 -80 c0 -8 -5 -12 -10 -9 -6 4 -8
11 -5 16 9 14 15 11 15 -7z m2709 -189 c-1 -27 -24 27 -33 75 -6 33 -5 33 13
-10 11 -25 20 -54 20 -65z m1335 -7 c-9 -14 -19 -8 -41 25 -35 51 -26 67 12
22 18 -21 31 -43 29 -47z m-39 2 c3 -5 1 -10 -4 -10 -6 0 -11 5 -11 10 0 6 2
10 4 10 3 0 8 -4 11 -10z m1805 -4 c0 -3 -4 -8 -10 -11 -5 -3 -10 -1 -10 4 0
6 5 11 10 11 6 0 10 -2 10 -4z m209 -38 c-1 -13 2 -141 6 -285 7 -233 6 -263
-8 -263 -17 0 -87 -92 -87 -115 0 -18 12 -16 -135 -19 -94 -1 -128 -6 -159
-21 -45 -22 -93 -83 -102 -131 -3 -19 -11 -37 -17 -41 -6 -4 -8 0 -5 8 24 62
22 65 -16 29 -31 -29 -38 -32 -46 -20 -6 8 -7 22 -4 30 3 8 9 34 13 57 7 33
23 58 72 111 35 37 82 89 104 117 22 27 70 79 106 115 53 53 70 78 87 128 11
34 17 60 11 57 -5 -4 -9 -10 -9 -15 0 -30 -112 -172 -125 -159 -3 4 112 180
124 189 6 5 118 156 160 218 26 38 31 40 30 10z m-2039 -137 c-17 -27 -38 -52
-47 -55 -14 -6 -14 -4 2 14 10 11 16 23 13 26 -5 5 -18 -9 -61 -71 -10 -14
-22 -25 -28 -25 -6 0 11 27 37 61 32 41 49 57 54 48 6 -8 13 -2 24 20 9 17 21
31 26 31 5 0 -4 -22 -20 -49z m-3100 -13 c0 -23 -60 -72 -73 -59 -7 7 -16 7
-28 0 -16 -8 -16 -5 4 33 15 29 29 43 42 43 11 0 24 6 29 14 7 11 10 11 17 0
5 -8 9 -21 9 -31z m70 32 c0 -5 -4 -10 -10 -10 -5 0 -10 5 -10 10 0 6 5 10 10
10 6 0 10 -4 10 -10z m4714 -68 c-4 -15 -13 -38 -21 -51 -8 -13 -19 -35 -24
-50 -23 -72 -88 -234 -89 -220 0 17 70 212 90 249 6 12 14 34 16 48 8 46 15
62 25 57 5 -4 6 -18 3 -33z m-4743 5 c-10 -9 -11 -8 -5 6 3 10 9 15 12 12 3
-3 0 -11 -7 -18z m2809 -42 c0 -8 -4 -15 -10 -15 -5 0 -7 7 -4 15 4 8 8 15 10
15 2 0 4 -7 4 -15z m-2908 -147 c-35 -111 -69 -211 -101 -301 -27 -75 -30 -94
-22 -124 9 -31 7 -40 -14 -67 -27 -36 -144 -100 -172 -94 -10 2 -17 12 -16 22
1 13 -2 15 -10 7 -16 -16 -27 -13 -27 7 0 14 -2 15 -10 2 -5 -8 -10 -10 -10
-4 0 6 -13 17 -29 24 -36 15 -142 116 -138 133 1 7 -4 11 -11 9 -7 -1 -18 10
-24 25 -7 16 -17 31 -22 35 -6 4 1 11 14 17 14 5 54 35 89 66 35 31 69 54 77
51 7 -3 14 -1 16 3 2 4 44 28 93 52 96 48 169 92 179 108 12 19 65 40 70 27 2
-6 21 6 43 30 21 22 40 39 41 38 2 -1 -5 -31 -16 -66z m3382 -43 c-28 -44 -44
-56 -44 -34 0 15 61 91 67 85 3 -3 -8 -26 -23 -51z m-714 -60 c-13 -14 -28
-25 -33 -25 -6 0 2 11 17 25 15 14 30 25 33 25 4 0 -4 -11 -17 -25z m-95 -75
c-3 -5 -11 -10 -16 -10 -6 0 -7 5 -4 10 3 6 11 10 16 10 6 0 7 -4 4 -10z m43
-83 c-5 -10 -12 -16 -15 -13 -3 3 -15 -1 -27 -9 -26 -19 -36 -19 -36 0 0 9 13
24 30 33 16 9 30 21 30 25 0 4 6 2 14 -5 10 -9 11 -18 4 -31z m2600 -133 c6
-11 18 -40 26 -64 l14 -42 -29 6 c-22 4 -36 0 -52 -14 -12 -11 -64 -43 -117
-71 -52 -28 -103 -58 -112 -67 -21 -18 -22 -13 -7 22 7 14 15 23 19 21 4 -2
17 16 30 40 28 54 42 67 101 89 72 26 116 89 82 118 -20 16 -33 50 -23 63 4 6
11 24 15 40 7 27 9 23 24 -45 9 -41 22 -84 29 -96z m-2625 64 c-6 -33 -49
-128 -58 -128 -6 0 6 32 18 48 6 8 6 12 -1 12 -7 0 -8 7 -4 18 9 19 46 82 49
82 1 0 0 -15 -4 -32z m2561 -48 c-14 -14 -38 5 -30 26 6 16 8 16 23 1 11 -11
14 -20 7 -27z m-5928 -35 c-11 -8 -15 -15 -9 -15 6 0 13 -9 16 -20 6 -23 -3
-26 -21 -8 -16 16 -15 45 1 51 25 11 31 6 13 -8z m54 -50 c0 -5 -5 -3 -10 5
-5 8 -10 20 -10 25 0 6 5 3 10 -5 5 -8 10 -19 10 -25z m40 -17 c0 -4 -11 -8
-24 -8 -22 0 -23 2 -13 25 11 23 13 23 25 8 6 -9 12 -20 12 -25z m40 -9 c0 -5
-8 -9 -17 -8 -11 0 -13 3 -5 6 6 2 9 10 6 15 -4 7 -2 8 4 4 7 -4 12 -11 12
-17z m-125 -9 c20 17 19 8 -3 -17 l-18 -21 -11 25 c-10 21 -10 23 3 13 11 -10
17 -10 29 0z m164 -14 c9 -11 9 -15 -1 -19 -8 -4 -7 -6 4 -6 19 -1 141 -86
146 -102 2 -5 -1 -9 -7 -9 -6 0 -11 -5 -11 -11 0 -5 5 -7 12 -3 7 4 8 3 4 -5
-4 -6 -11 -9 -16 -6 -4 3 -11 -1 -13 -7 -3 -8 -6 -6 -6 5 -1 15 -12 21 -33 18
-4 0 -5 5 -2 12 3 8 -1 14 -8 14 -7 0 -30 3 -50 7 -28 5 -37 4 -34 -6 1 -7 1
-10 -1 -5 -9 16 -23 6 -23 -17 0 -13 -7 -27 -16 -30 -25 -10 -29 1 -9 24 9 10
15 26 11 35 -3 9 -2 13 4 10 6 -3 10 -2 10 3 0 6 -7 12 -15 16 -8 3 -15 11
-14 18 0 10 2 10 6 1 2 -7 11 -13 18 -13 7 0 15 -4 17 -10 2 -5 14 0 28 11 15
11 18 17 8 13 -11 -4 -18 -1 -18 6 0 6 -4 9 -9 6 -5 -3 -11 4 -14 15 -5 17 -9
19 -26 9 -12 -6 -21 -18 -21 -27 0 -12 -3 -14 -11 -6 -8 8 -8 16 0 30 6 10 11
14 11 9 0 -5 6 -3 14 3 8 6 18 11 22 10 5 -1 16 -1 24 0 13 1 13 2 0 11 -8 5
-10 10 -4 10 6 0 17 -6 23 -14z m5262 -13 c-8 -15 -10 -15 -11 -2 0 17 10 32
18 25 2 -3 -1 -13 -7 -23z m-5511 7 c0 -5 -5 -10 -11 -10 -5 0 -7 5 -4 10 3 6
8 10 11 10 2 0 4 -4 4 -10z m139 -21 c-14 -8 -29 -3 -29 11 0 4 9 6 21 3 15
-4 17 -8 8 -14z m-119 -24 c7 -9 10 -18 6 -22 -3 -3 -6 -1 -6 5 0 6 -7 9 -15
6 -9 -4 -15 0 -15 10 0 20 14 21 30 1z m84 0 c-4 -8 -10 -12 -15 -9 -11 6 -2
24 11 24 5 0 7 -7 4 -15z m-20 -42 c4 -9 1 -20 -6 -25 -21 -12 -31 -9 -24 8 3
9 6 20 6 25 0 15 17 10 24 -8z m36 4 c22 6 28 -12 6 -20 -15 -6 -36 11 -35 28
0 6 2 5 5 -1 3 -7 14 -10 24 -7z m54 -13 c8 -21 8 -29 -1 -21 -3 4 -15 0 -25
-10 -17 -15 -18 -15 -18 1 0 9 7 19 15 22 8 4 12 10 9 15 -3 5 -1 9 4 9 6 0
13 -7 16 -16z m136 -34 c0 -5 -5 -10 -11 -10 -5 0 -7 5 -4 10 3 6 8 10 11 10
2 0 4 -4 4 -10z m-150 -30 c0 -5 -4 -10 -9 -10 -6 0 -13 5 -16 10 -3 6 1 10 9
10 9 0 16 -4 16 -10z m7410 -10 c0 -5 -5 -10 -11 -10 -5 0 -7 5 -4 10 3 6 8
10 11 10 2 0 4 -4 4 -10z m20 -52 c0 -5 -6 -8 -14 -8 -9 0 -12 7 -9 21 4 16 8
17 14 7 5 -7 9 -16 9 -20z"/>
<path d="M4408 6863 c7 -3 16 -2 19 1 4 3 -2 6 -13 5 -11 0 -14 -3 -6 -6z"/>
<path d="M4472 6740 c-10 -17 -10 -20 3 -20 19 0 19 -34 0 -50 -22 -18 -18
-32 4 -18 11 7 18 15 15 19 -2 4 2 12 10 16 10 5 13 16 10 31 -4 12 -10 19
-15 16 -5 -3 -9 0 -9 5 0 17 15 13 33 -7 10 -10 14 -22 10 -27 -5 -4 -3 -5 4
-1 9 5 10 13 1 31 -14 30 -48 33 -66 5z"/>
<path d="M4455 6690 c-3 -11 -15 -20 -26 -20 -10 0 -19 -5 -19 -11 0 -5 -4 -7
-10 -4 -5 3 -10 2 -10 -4 0 -5 5 -13 11 -17 11 -6 69 49 69 67 0 16 -8 10 -15
-11z"/>
<path d="M4550 6689 c-12 -8 -9 -10 12 -6 35 5 27 -14 -13 -32 -24 -10 -27
-16 -18 -27 6 -8 17 -14 23 -14 6 0 4 5 -4 10 -13 9 -13 11 0 20 11 7 16 5 18
-5 2 -9 7 -13 12 -10 5 3 7 12 4 19 -3 7 2 19 10 26 30 24 -11 42 -44 19z"/>
<path d="M4660 6651 c0 -5 7 -12 16 -15 14 -5 15 -4 4 9 -14 17 -20 19 -20 6z"/>
<path d="M4735 6560 c-3 -5 -2 -10 4 -10 5 0 13 5 16 10 3 6 2 10 -4 10 -5 0
-13 -4 -16 -10z"/>
<path d="M4781 6528 c-7 -13 -10 -20 -6 -16 5 4 15 2 24 -4 13 -10 14 -10 4 1
-6 7 -9 20 -6 27 8 21 -1 17 -16 -8z"/>
<path d="M4888 6543 c7 -3 16 -2 19 1 4 3 -2 6 -13 5 -11 0 -14 -3 -6 -6z"/>
<path d="M4660 6524 c0 -8 5 -12 10 -9 6 4 8 11 5 16 -9 14 -15 11 -15 -7z"/>
<path d="M4900 6515 c0 -8 2 -15 4 -15 2 0 6 7 10 15 3 8 1 15 -4 15 -6 0 -10
-7 -10 -15z"/>
<path d="M4825 6260 c-3 -5 -1 -10 4 -10 6 0 11 5 11 10 0 6 -2 10 -4 10 -3 0
-8 -4 -11 -10z"/>
<path d="M5165 6241 c-6 -11 33 -26 43 -16 4 3 0 10 -8 15 -19 12 -27 12 -35
1z"/>
<path d="M4004 6215 c-3 -8 -4 -20 -1 -27 3 -7 6 -3 6 9 1 12 7 24 14 26 9 4
9 6 -1 6 -7 1 -15 -6 -18 -14z"/>
<path d="M5245 6190 c3 -5 8 -10 11 -10 2 0 4 5 4 10 0 6 -5 10 -11 10 -5 0
-7 -4 -4 -10z"/>
<path d="M5275 6180 c-3 -5 -1 -10 4 -10 6 0 11 5 11 10 0 6 -2 10 -4 10 -3 0
-8 -4 -11 -10z"/>
<path d="M5825 5659 c15 -24 87 -119 91 -119 9 0 -73 124 -85 128 -10 3 -11 0
-6 -9z"/>
<path d="M7080 2359 c0 -5 5 -7 10 -4 6 3 10 8 10 11 0 2 -4 4 -10 4 -5 0 -10
-5 -10 -11z"/>
<path d="M3986 2361 c-4 -5 3 -7 14 -4 23 6 26 13 6 13 -8 0 -17 -4 -20 -9z"/>
<path d="M3875 2240 c-3 -5 -1 -10 4 -10 6 0 11 5 11 10 0 6 -2 10 -4 10 -3 0
-8 -4 -11 -10z"/>
<path d="M3700 2120 c-8 -5 -12 -12 -9 -15 4 -3 12 1 19 10 14 17 11 19 -10 5z"/>
<path d="M1157 2070 c-49 -9 -52 -14 -32 -42 10 -14 16 -17 14 -8 -3 26 1 40
10 40 5 0 8 -11 6 -25 -1 -14 2 -25 6 -25 5 0 9 11 9 24 0 13 7 26 15 29 11 5
12 1 5 -19 -6 -14 -10 -32 -10 -40 0 -13 2 -13 13 -2 8 7 14 20 14 28 0 8 2
21 4 29 5 18 -7 20 -54 11z"/>
<path d="M958 2043 c6 -2 10 -9 6 -14 -3 -5 -1 -9 5 -9 17 0 21 18 5 24 -9 3
-19 6 -22 5 -4 0 -1 -3 6 -6z"/>
<path d="M1069 2013 c-13 -16 -12 -17 4 -4 9 7 17 15 17 17 0 8 -8 3 -21 -13z"/>
<path d="M1025 2000 c-10 -17 5 -50 23 -50 14 0 14 2 3 9 -8 5 -12 18 -8 30 5
22 -7 29 -18 11z"/>
<path d="M1090 2000 c-9 -6 -10 -10 -3 -10 6 0 15 5 18 10 8 12 4 12 -15 0z"/>
<path d="M980 1996 c0 -2 7 -6 15 -10 8 -3 15 -1 15 4 0 6 -7 10 -15 10 -8 0
-15 -2 -15 -4z"/>
<path d="M1275 1990 c-3 -5 1 -10 9 -10 9 0 16 5 16 10 0 6 -4 10 -9 10 -6 0
-13 -4 -16 -10z"/>
<path d="M1178 1958 c5 -20 15 -17 18 6 1 7 -4 13 -11 13 -7 0 -10 -8 -7 -19z"/>
<path d="M1229 1953 c-13 -16 -12 -17 4 -4 9 7 17 15 17 17 0 8 -8 3 -21 -13z"/>
<path d="M1575 1920 c-3 -6 1 -7 9 -4 18 7 21 14 7 14 -6 0 -13 -4 -16 -10z"/>
<path d="M1419 1671 c-3 -21 -4 -26 -12 -38 -5 -7 -4 -13 1 -13 14 0 33 48 22
55 -6 4 -11 1 -11 -4z"/>
<path d="M1257 1391 c-4 -17 -3 -21 5 -13 5 5 8 16 6 23 -3 8 -7 3 -11 -10z"/>
<path d="M657 578 c-9 -31 -2 -33 11 -3 6 14 8 25 3 25 -5 0 -11 -10 -14 -22z"/>
<path d="M607 543 c-12 -12 -7 -22 8 -17 8 4 15 10 15 15 0 11 -14 12 -23 2z"/>
<path d="M567 490 c-3 -11 -1 -20 4 -20 5 0 9 9 9 20 0 11 -2 20 -4 20 -2 0
-6 -9 -9 -20z"/>
<path d="M690 500 c-8 -5 -12 -12 -9 -15 4 -3 12 1 19 10 14 17 11 19 -10 5z"/>
<path d="M640 460 c0 -5 5 -10 11 -10 5 0 7 5 4 10 -3 6 -8 10 -11 10 -2 0 -4
-4 -4 -10z"/>
<path d="M314 449 c-3 -6 -1 -16 4 -21 8 -8 11 -5 9 11 -1 24 -3 25 -13 10z"/>
<path d="M451 444 c0 -11 3 -14 6 -6 3 7 2 16 -1 19 -3 4 -6 -2 -5 -13z"/>
<path d="M500 449 c0 -5 5 -7 10 -4 6 3 10 8 10 11 0 2 -4 4 -10 4 -5 0 -10
-5 -10 -11z"/>
<path d="M555 428 c-4 -21 -13 -38 -21 -38 -7 0 -15 -4 -18 -8 -12 -20 36 -4
50 16 8 12 22 22 30 22 8 0 14 5 14 10 0 14 -17 12 -26 -2 -6 -9 -10 -5 -15
12 -6 23 -7 22 -14 -12z"/>
<path d="M648 400 c-3 -16 -1 -30 4 -30 4 0 8 14 8 30 0 17 -2 30 -4 30 -2 0
-6 -13 -8 -30z"/>
<path d="M385 407 c-4 -10 -5 -21 -1 -24 10 -10 18 4 13 24 -4 17 -4 17 -12 0z"/>
<path d="M601 383 c0 -12 -4 -30 -7 -40 -5 -14 -4 -15 5 -7 7 6 11 24 8 40 -3
21 -4 23 -6 7z"/>
<path d="M410 350 c0 -5 5 -10 11 -10 5 0 7 5 4 10 -3 6 -8 10 -11 10 -2 0 -4
-4 -4 -10z"/>
<path d="M440 330 c-13 -9 -13 -10 0 -10 8 0 22 5 30 10 13 9 13 10 0 10 -8 0
-22 -5 -30 -10z"/>
<path d="M549 304 c-8 -9 -23 -14 -39 -12 -24 4 -25 2 -16 -18 9 -20 12 -20
23 -5 12 14 13 12 8 -14 -5 -29 -5 -29 5 -5 6 13 18 33 27 42 9 10 14 20 11
23 -3 3 -11 -2 -19 -11z"/>
<path d="M596 288 c-4 -20 -12 -39 -19 -41 -7 -3 -2 -4 10 -4 23 1 34 30 23
63 -5 15 -8 11 -14 -18z"/>
<path d="M551 234 c0 -11 3 -14 6 -6 3 7 2 16 -1 19 -3 4 -6 -2 -5 -13z"/>
<path d="M301 154 c0 -11 3 -14 6 -6 3 7 2 16 -1 19 -3 4 -6 -2 -5 -13z"/>
<path d="M5309 2624 c-17 -21 -49 -88 -44 -92 8 -8 25 10 25 25 0 9 9 31 21
49 22 36 21 45 -2 18z"/>
<path d="M4992 2571 c-7 -19 -10 -36 -7 -39 6 -7 26 49 22 62 -2 6 -9 -5 -15
-23z"/>
<path d="M5250 2565 c0 -8 2 -15 4 -15 2 0 6 7 10 15 3 8 1 15 -4 15 -6 0 -10
-7 -10 -15z"/>
<path d="M4972 2475 c-15 -56 -15 -76 0 -51 11 19 24 96 16 96 -2 0 -9 -20
-16 -45z"/>
<path d="M5296 2495 c-9 -26 -7 -32 5 -12 6 10 9 21 6 23 -2 3 -7 -2 -11 -11z"/>
<path d="M4946 2383 c-6 -14 -5 -15 5 -6 7 7 10 15 7 18 -3 3 -9 -2 -12 -12z"/>
<path d="M5202 2279 c-13 -23 -19 -38 -12 -34 8 5 7 1 -1 -13 -15 -24 -9 -35
14 -26 9 3 13 12 10 20 -3 8 -1 20 5 27 13 17 24 67 15 67 -5 0 -19 -19 -31
-41z"/>
<path d="M4931 2274 c0 -11 3 -14 6 -6 3 7 2 16 -1 19 -3 4 -6 -2 -5 -13z"/>
<path d="M2912 2020 c-16 -26 -15 -30 6 -29 11 0 12 2 4 6 -10 4 -10 8 -1 19
7 8 10 16 8 19 -3 2 -10 -5 -17 -15z"/>
<path d="M2893 1961 c-10 -15 -9 -20 2 -25 11 -4 15 2 15 19 0 30 -2 31 -17 6z"/>
<path d="M709 1943 c-13 -16 -12 -17 4 -4 9 7 17 15 17 17 0 8 -8 3 -21 -13z"/>
<path d="M689 1893 c-13 -16 -12 -17 4 -4 9 7 17 15 17 17 0 8 -8 3 -21 -13z"/>
<path d="M636 1884 c-9 -24 -2 -26 12 -4 7 11 8 20 3 20 -5 0 -12 -7 -15 -16z"/>
<path d="M647 1858 c-10 -11 -17 -27 -15 -36 3 -12 9 -7 21 17 20 40 19 45 -6
19z"/>
<path d="M780 1870 c-13 -8 -12 -10 3 -10 9 0 17 5 17 10 0 12 -1 12 -20 0z"/>
<path d="M515 1813 c4 -8 0 -13 -9 -13 -9 0 -16 -4 -16 -9 0 -5 -10 -12 -22
-14 -15 -3 -11 -5 13 -6 19 0 42 5 50 12 8 6 12 11 10 10 -2 -2 -10 5 -18 15
-8 9 -12 11 -8 5z"/>
<path d="M576 1811 c-4 -7 -5 -15 -2 -18 9 -9 19 4 14 18 -4 11 -6 11 -12 0z"/>
<path d="M4948 1780 c-45 -54 -160 -170 -168 -170 -5 0 -12 -5 -16 -12 -5 -8
-2 -9 10 -5 17 7 15 -2 -7 -31 -7 -9 -12 -10 -17 -2 -5 8 -9 6 -13 -5 -5 -10
-3 -14 4 -9 7 4 10 1 7 -7 -3 -8 -9 -14 -15 -14 -22 0 -172 -210 -159 -222 3
-4 6 0 6 8 0 12 2 12 9 0 7 -11 13 -7 25 17 8 16 21 36 29 44 7 7 45 58 85
114 40 56 107 141 150 190 70 79 111 134 99 134 -2 0 -15 -14 -29 -30z"/>
<path d="M605 1770 c-3 -5 3 -10 15 -10 12 0 18 5 15 10 -3 6 -10 10 -15 10
-5 0 -12 -4 -15 -10z"/>
<path d="M420 1740 c-14 -26 3 -34 24 -11 15 16 15 19 2 24 -10 4 -20 -1 -26
-13z"/>
<path d="M520 1737 c0 -8 7 -14 15 -14 11 0 12 4 4 14 -6 7 -13 13 -15 13 -2
0 -4 -6 -4 -13z"/>
<path d="M499 1728 c-1 -7 -1 -16 0 -20 0 -5 -3 -8 -9 -8 -5 0 -10 -4 -10 -9
0 -4 12 -6 26 -3 22 4 24 6 11 14 -9 5 -14 15 -11 23 4 8 3 15 0 15 -3 0 -7
-6 -7 -12z"/>
<path d="M377 1724 c-4 -4 -7 -19 -6 -33 l0 -26 10 24 c10 26 8 47 -4 35z"/>
<path d="M440 1650 l-25 -21 25 7 c31 8 33 10 28 24 -2 8 -13 4 -28 -10z"/>
<path d="M500 1660 c0 -5 5 -10 11 -10 5 0 7 5 4 10 -3 6 -8 10 -11 10 -2 0
-4 -4 -4 -10z"/>
<path d="M434 1606 c-10 -8 -16 -17 -13 -20 3 -3 14 1 25 8 10 8 16 17 13 20
-3 3 -14 -1 -25 -8z"/>
<path d="M270 1581 c0 -5 6 -11 14 -14 8 -3 16 -16 18 -29 3 -22 3 -21 16 5 6
16 8 25 2 22 -5 -3 -10 1 -10 9 0 9 -9 16 -20 16 -11 0 -20 -4 -20 -9z"/>
<path d="M204 1554 c-18 -14 -18 -15 4 -4 12 6 22 13 22 15 0 8 -5 6 -26 -11z"/>
<path d="M470 1560 c0 -5 7 -7 15 -4 8 4 15 8 15 10 0 2 -7 4 -15 4 -8 0 -15
-4 -15 -10z"/>
<path d="M347 1539 c-26 -30 -15 -34 13 -4 13 14 19 25 14 25 -5 0 -18 -9 -27
-21z"/>
<path d="M249 1540 c-24 -14 -53 -60 -37 -60 7 1 23 16 35 35 12 19 21 35 20
35 -1 0 -9 -5 -18 -10z"/>
<path d="M139 1503 c-13 -16 -12 -17 4 -4 9 7 17 15 17 17 0 8 -8 3 -21 -13z"/>
<path d="M249 1498 c-12 -23 -12 -23 10 -4 23 21 26 26 11 26 -5 0 -15 -10
-21 -22z"/>
<path d="M180 1476 c0 -17 16 -30 23 -19 3 5 -1 14 -9 21 -12 10 -14 10 -14
-2z"/>
<path d="M905 1480 c-3 -5 -1 -10 4 -10 6 0 11 5 11 10 0 6 -2 10 -4 10 -3 0
-8 -4 -11 -10z"/>
<path d="M147 1473 c-4 -3 -7 -11 -7 -17 0 -6 5 -5 12 2 6 6 9 14 7 17 -3 3
-9 2 -12 -2z"/>
<path d="M156 1434 c-10 -25 1 -29 14 -5 6 12 7 21 1 21 -5 0 -12 -7 -15 -16z"/>
<path d="M12 1431 c-8 -5 -12 -21 -10 -37 l3 -28 18 28 c19 29 12 52 -11 37z"/>
<path d="M116 1423 c-4 -9 -3 -19 1 -22 18 -13 31 -50 26 -70 -8 -31 3 -26 21
11 18 36 21 50 5 28 -9 -12 -10 -11 -6 7 3 15 -1 23 -15 27 -14 3 -19 10 -15
20 4 9 2 16 -2 16 -5 0 -12 -8 -15 -17z"/>
<path d="M206 1425 c4 -8 8 -15 10 -15 2 0 4 7 4 15 0 8 -4 15 -10 15 -5 0 -7
-7 -4 -15z"/>
<path d="M825 1420 c-3 -5 -2 -10 4 -10 5 0 13 5 16 10 3 6 2 10 -4 10 -5 0
-13 -4 -16 -10z"/>
<path d="M96 1375 c-3 -8 -1 -15 3 -15 5 0 11 7 15 15 3 8 1 15 -3 15 -5 0
-11 -7 -15 -15z"/>
<path d="M109 1323 c-13 -16 -12 -17 4 -4 9 7 17 15 17 17 0 8 -8 3 -21 -13z"/>
<path d="M4517 1230 c-46 -50 -51 -65 -11 -32 21 17 69 82 61 82 -2 0 -25 -22
-50 -50z"/>
<path d="M575 1230 c3 -5 8 -10 11 -10 2 0 4 5 4 10 0 6 -5 10 -11 10 -5 0 -7
-4 -4 -10z"/>
<path d="M450 1190 c0 -5 5 -10 11 -10 5 0 7 5 4 10 -3 6 -8 10 -11 10 -2 0
-4 -4 -4 -10z"/>
<path d="M192 1104 c-7 -8 -17 -12 -23 -9 -5 4 -9 0 -9 -9 0 -8 -3 -23 -6 -33
-4 -10 8 -3 30 19 20 20 36 39 36 42 0 11 -15 5 -28 -10z"/>
<path d="M326 1101 c-3 -5 1 -14 8 -20 18 -15 28 0 10 16 -7 7 -15 9 -18 4z"/>
<path d="M835 1100 c-3 -5 1 -10 10 -10 9 0 13 5 10 10 -3 6 -8 10 -10 10 -2
0 -7 -4 -10 -10z"/>
<path d="M378 1063 c-16 -2 -28 -9 -28 -14 0 -11 39 -2 55 12 5 5 7 8 5 8 -3
-1 -17 -4 -32 -6z"/>
<path d="M246 1045 c-18 -18 -43 -19 -49 -2 -3 6 -6 0 -6 -14 -1 -16 -7 -26
-16 -26 -10 0 -14 6 -10 15 4 12 3 13 -10 2 -12 -10 -18 -10 -32 1 -14 10 -13
8 2 -10 l20 -23 -24 -19 c-28 -23 -49 -26 -31 -4 11 14 6 35 -9 35 -8 0 -8 -2
-14 -67 -4 -34 -1 -42 14 -46 15 -4 17 -2 9 12 -6 13 -4 22 11 34 10 9 19 14
19 11 0 -4 7 -1 15 6 12 10 15 10 15 -4 0 -9 5 -16 11 -16 6 0 9 6 6 13 -2 6
5 17 17 24 20 12 20 12 1 13 -20 0 9 20 73 49 12 6 22 15 22 21 0 15 -16 12
-34 -5z"/>
<path d="M29 1011 c9 -6 11 -18 7 -35 -3 -14 -2 -26 3 -26 13 0 20 35 9 54 -5
9 -14 16 -21 16 -8 0 -7 -3 2 -9z"/>
<path d="M266 1011 c-4 -7 -5 -15 -2 -18 9 -9 19 4 14 18 -4 11 -6 11 -12 0z"/>
<path d="M600 1004 c0 -8 5 -12 10 -9 6 4 8 11 5 16 -9 14 -15 11 -15 -7z"/>
<path d="M3676 1005 c-9 -26 -7 -32 5 -12 6 10 9 21 6 23 -2 3 -7 -2 -11 -11z"/>
<path d="M206 965 c-11 -8 -15 -15 -9 -15 6 0 16 7 23 15 16 19 11 19 -14 0z"/>
<path d="M325 960 c-3 -5 -1 -10 4 -10 6 0 11 5 11 10 0 6 -2 10 -4 10 -3 0
-8 -4 -11 -10z"/>
<path d="M386 955 c4 -8 10 -15 15 -15 4 0 6 7 3 15 -4 8 -10 15 -15 15 -4 0
-6 -7 -3 -15z"/>
<path d="M2580 903 l-55 -58 58 55 c31 30 57 56 57 57 0 8 -10 -1 -60 -54z"/>
<path d="M256 931 c-3 -5 -15 -7 -26 -4 -14 4 -20 0 -20 -11 0 -19 -16 -22
-23 -3 -3 9 -7 9 -20 -2 -21 -17 -22 -31 -1 -31 11 0 14 -6 9 -22 -5 -20 -5
-21 5 -5 6 9 15 15 20 12 5 -3 11 3 15 14 4 14 15 19 36 19 16 -1 33 3 37 7 4
4 -4 5 -18 2 -22 -5 -23 -5 -7 7 9 7 17 16 17 20 0 9 -18 7 -24 -3z"/>
<path d="M7660 886 c0 -30 5 -58 10 -61 6 -4 10 17 10 54 0 34 -4 61 -10 61
-5 0 -10 -24 -10 -54z"/>
<path d="M10 917 c0 -19 16 -31 24 -18 3 5 -1 14 -9 21 -12 10 -15 10 -15 -3z"/>
<path d="M124 898 c-5 -13 -8 -25 -9 -28 -2 -12 -24 -44 -25 -35 0 6 -5 3 -10
-5 -8 -13 -10 -13 -10 1 0 9 8 20 17 23 11 5 13 10 6 17 -14 14 -53 2 -53 -17
0 -18 21 -57 38 -67 6 -4 12 -16 13 -25 0 -11 2 -12 6 -4 3 7 -1 20 -8 28 -10
13 -10 17 1 24 8 5 18 6 22 4 4 -3 8 0 8 6 0 8 6 8 21 0 11 -6 25 -9 32 -6 7
2 4 5 -5 5 -12 1 -15 6 -11 18 5 13 2 15 -12 10 -14 -6 -15 -5 -7 6 7 8 7 18
2 27 -5 9 -5 19 2 27 7 9 7 13 0 13 -6 0 -14 -10 -18 -22z m-67 -60 c-3 -8 -6
-5 -6 6 -1 11 2 17 5 13 3 -3 4 -12 1 -19z"/>
<path d="M220 840 c0 -11 3 -19 8 -19 19 3 21 -3 6 -26 -9 -14 -20 -22 -25
-19 -14 8 -29 -5 -23 -21 4 -8 10 -12 15 -9 5 3 7 10 4 15 -3 5 0 6 8 3 10 -3
21 6 31 27 15 31 15 33 -4 51 -20 18 -20 18 -20 -2z"/>
<path d="M0 837 c0 -8 7 -17 15 -21 8 -3 15 -3 15 0 0 3 -7 12 -15 20 -13 13
-15 13 -15 1z"/>
<path d="M190 839 c0 -5 5 -7 10 -4 6 3 10 8 10 11 0 2 -4 4 -10 4 -5 0 -10
-5 -10 -11z"/>
<path d="M3836 769 c-4 -23 -5 -44 -2 -46 2 -2 7 14 11 37 4 23 5 43 2 46 -2
3 -7 -14 -11 -37z"/>
<path d="M7672 790 c0 -14 2 -19 5 -12 2 6 2 18 0 25 -3 6 -5 1 -5 -13z"/>
<path d="M272 791 c4 -13 18 -16 19 -4 0 4 -5 9 -11 12 -7 2 -11 -2 -8 -8z"/>
<path d="M15 780 c-3 -5 -2 -10 4 -10 5 0 13 5 16 10 3 6 2 10 -4 10 -5 0 -13
-4 -16 -10z"/>
<path d="M136 765 c-11 -8 -14 -15 -8 -15 7 0 12 -7 12 -16 0 -11 5 -14 16
-10 9 3 18 6 20 6 2 0 4 5 4 11 0 8 -6 7 -17 -2 -15 -13 -16 -11 -11 14 3 15
5 27 4 27 0 0 -10 -7 -20 -15z"/>
<path d="M50 734 c0 -21 3 -24 21 -19 16 5 19 4 14 -5 -5 -8 -4 -11 3 -6 6 4
9 13 6 21 -4 8 -10 12 -15 9 -5 -3 -9 2 -9 10 0 9 -4 16 -10 16 -5 0 -10 -12
-10 -26z"/>
<path d="M4140 708 c-12 -22 -12 -22 6 -6 10 10 15 20 12 24 -4 3 -12 -5 -18
-18z"/>
<path d="M3821 694 c0 -11 3 -14 6 -6 3 7 2 16 -1 19 -3 4 -6 -2 -5 -13z"/>
<path d="M120 689 c0 -6 -7 -9 -14 -6 -10 4 -13 1 -9 -9 6 -17 15 -18 31 -2
15 15 16 28 2 28 -5 0 -10 -5 -10 -11z"/>
<path d="M4075 634 c-9 -15 -12 -23 -6 -20 11 7 35 46 28 46 -3 0 -12 -12 -22
-26z"/>
<path d="M4087 612 c-30 -47 -100 -183 -95 -187 2 -2 18 25 37 61 18 35 36 62
40 60 3 -2 16 20 27 50 12 30 20 54 19 54 -1 0 -14 -17 -28 -38z"/>
<path d="M3788 593 c-9 -26 -45 -123 -81 -215 -79 -204 -132 -366 -123 -375
11 -11 26 20 20 41 -4 12 -2 16 5 12 6 -4 11 -4 10 1 -5 22 16 97 31 111 20
19 38 68 22 58 -6 -4 -8 2 -5 15 5 16 8 18 15 7 5 -8 6 -3 2 15 -4 20 -3 27 6
25 7 -2 15 4 17 12 4 13 3 13 -6 0 -24 -34 -9 17 50 166 33 86 59 160 57 166
-2 5 -11 -12 -20 -39z"/>
<path d="M4006 534 c-20 -42 -34 -79 -32 -82 3 -2 21 30 41 73 20 42 34 79 32
82 -3 2 -21 -30 -41 -73z"/>
<path d="M3716 345 c-9 -26 -7 -32 5 -12 6 10 9 21 6 23 -2 3 -7 -2 -11 -11z"/>
<path d="M2176 74 c-18 -69 -16 -100 3 -42 13 43 25 108 18 108 -2 0 -12 -30
-21 -66z"/>
<path d="M115 30 c3 -5 -2 -10 -12 -10 -17 -1 -17 -1 0 -11 13 -8 22 -8 29 -1
11 11 3 32 -13 32 -6 0 -7 -4 -4 -10z"/>
<path d="M5960 10 c-12 -8 -11 -10 7 -10 12 0 25 5 28 10 8 13 -15 13 -35 0z"/>
</g>
</svg>
