<?xml version="1.0" standalone="no"?>
<!DOCTYPE svg PUBLIC "-//W3C//DTD SVG 20010904//EN"
 "http://www.w3.org/TR/2001/REC-SVG-20010904/DTD/svg10.dtd">
<svg version="1.0" xmlns="http://www.w3.org/2000/svg"
 width="512.000000pt" height="512.000000pt" viewBox="0 0 512.000000 512.000000"
 preserveAspectRatio="xMidYMid meet">

<g transform="translate(0.000000,512.000000) scale(0.100000,-0.100000)"
fill="#000000" stroke="none">
<path d="M0 2560 l0 -2560 1263 1 c794 1 1242 5 1207 10 -188 31 -349 199
-381 396 -42 259 140 506 401 545 151 22 296 -26 406 -136 145 -145 182 -356
95 -542 -60 -127 -206 -241 -338 -264 -26 -4 518 -8 1210 -9 l1257 -1 0 2560
0 2560 -1227 -1 c-777 -1 -1192 -5 -1129 -10 662 -59 1218 -477 1363 -1026 22
-83 26 -121 27 -243 1 -147 -8 -207 -45 -322 -83 -250 -228 -437 -631 -810
-336 -310 -507 -497 -571 -623 -60 -120 -80 -263 -51 -360 54 -179 -11 -342
-165 -414 -45 -21 -71 -26 -131 -26 -127 0 -227 62 -287 178 -25 46 -28 63
-28 152 0 114 13 175 62 294 92 226 267 420 728 806 473 397 646 590 742 825
45 111 58 174 57 285 -1 170 -44 267 -178 401 -161 162 -400 285 -695 358
-163 41 -240 51 -401 51 -161 0 -238 -10 -400 -51 -297 -74 -532 -195 -696
-358 -128 -127 -177 -232 -178 -381 -1 -70 3 -88 32 -149 63 -134 238 -275
412 -332 57 -18 141 -22 330 -13 87 4 100 2 151 -22 201 -94 249 -358 94 -514
-51 -50 -132 -86 -209 -92 -200 -16 -540 123 -751 308 -389 340 -490 829 -264
1280 189 380 585 664 1062 764 69 15 171 30 228 34 59 5 -427 9 -1133 10
l-1238 1 0 -2560z"/>
</g>
</svg>
