<?xml version="1.0" standalone="no"?>
<!DOCTYPE svg PUBLIC "-//W3C//DTD SVG 20010904//EN"
 "http://www.w3.org/TR/2001/REC-SVG-20010904/DTD/svg10.dtd">
<svg version="1.0" xmlns="http://www.w3.org/2000/svg"
 width="512.000000pt" height="512.000000pt" viewBox="0 0 512.000000 512.000000"
 preserveAspectRatio="xMidYMid meet">

<g transform="translate(0.000000,512.000000) scale(0.100000,-0.100000)"
fill="#000000" stroke="none">
<path d="M2371 5109 c-560 -43 -1068 -355 -1288 -793 -154 -306 -161 -613 -23
-921 140 -310 518 -591 887 -661 204 -38 350 23 422 175 21 45 26 71 26 131 0
129 -67 234 -184 289 -51 24 -64 26 -151 22 -189 -9 -273 -5 -330 13 -174 57
-349 198 -412 332 -29 61 -33 79 -32 149 1 149 50 254 178 381 171 170 418
293 736 368 270 64 507 59 793 -18 290 -77 531 -207 683 -368 117 -124 157
-222 158 -383 1 -111 -12 -174 -57 -285 -96 -235 -271 -430 -737 -820 -462
-387 -641 -584 -733 -811 -48 -117 -61 -179 -62 -289 0 -82 4 -103 26 -151 94
-201 360 -249 514 -93 59 60 89 135 89 219 0 39 -8 97 -18 130 -29 97 -9 240
51 360 64 126 235 313 571 623 341 316 484 483 577 677 76 159 100 269 99 455
-1 122 -5 160 -27 243 -113 427 -477 784 -960 942 -247 80 -498 107 -796 84z"/>
<path d="M2467 950 c-132 -23 -278 -137 -338 -264 -87 -186 -49 -397 97 -544
187 -187 482 -186 670 2 189 189 189 483 1 670 -117 118 -263 164 -430 136z"/>
</g>
</svg>
